<?xml version="1.0" encoding="iso-8859-1"?>
<!-- Generator: Adobe Illustrator 19.0.0, SVG Export Plug-In . SVG Version: 6.00 Build 0)  -->
<svg version="1.1" id="Layer_1" xmlns="http://www.w3.org/2000/svg" xmlns:xlink="http://www.w3.org/1999/xlink" x="0px" y="0px"
	 viewBox="0 0 512 512" style="enable-background:new 0 0 512 512;" xml:space="preserve">
<g>
	<g>
		<path d="M353.581,345.807c-8.789-7.851-22.251-7.125-30.123,1.643c-23.936,26.667-65.899,40.747-107.157,36.011
			c-11.776-1.429-22.293,7.04-23.659,18.731c-1.344,11.712,7.019,22.293,18.731,23.659c7.104,0.832,14.187,1.216,21.248,1.216
			c47.872,0,93.504-18.688,122.581-51.136C363.074,367.162,362.349,353.679,353.581,345.807z"/>
	</g>
</g>
<g>
	<g>
		<path d="M500.885,151.029c-15.488-8.469-31.531-14.763-47.765-19.691C407.979,62.859,333.376,20.405,256,20.405
			c-76.523,0-150.507,42.261-195.456,110.4c-16.832,4.971-33.429,11.456-49.429,20.224L0,157.088v12.651
			c0,51.669,8.853,85.931,21.952,108.459C33.259,398.389,134.571,491.595,256,491.595s222.741-93.205,234.048-213.397
			C503.147,255.669,512,221.408,512,169.739v-12.651L500.885,151.029z M256,63.072c49.408,0,97.771,21.397,134.336,57.856
			c-0.149,0-0.299,0.021-0.448,0.021c-8.704-0.235-17.365,0.149-26.048,0.896c-2.219,0.192-4.416,0.192-6.613,0.427
			c-7.083,0.811-14.08,2.219-21.099,3.669c-3.371,0.704-6.805,1.109-10.155,1.963c-6.464,1.621-12.821,3.904-19.179,6.08
			c-3.584,1.216-7.232,2.133-10.773,3.52c-7.915,3.115-15.659,6.933-23.36,10.901h-33.323c-7.595-3.925-15.232-7.701-23.019-10.795
			c-5.845-2.304-11.797-3.947-17.749-5.803c-3.904-1.195-7.744-2.731-11.669-3.733c-5.013-1.28-10.133-1.984-15.211-2.944
			c-5.163-0.96-10.304-2.133-15.488-2.773c-3.605-0.405-7.275-0.427-10.901-0.683c-6.891-0.512-13.739-0.981-20.629-0.896
			c-0.555,0.021-1.109-0.085-1.664-0.064C159.296,84.384,207.189,63.072,256,63.072z M256,448.928
			c-84.544,0-157.333-55.147-182.891-132.181c0.043,0,0.107,0,0.171,0.021c2.688,0.555,5.376,0.981,8.021,1.259
			c8.661,0.917,16.917,1.259,25.003,1.344c0.896,0.021,1.899,0.171,2.795,0.171c1.024,0,1.92-0.192,2.923-0.213
			c9.536-0.128,18.773-0.661,27.435-1.941c0.192-0.021,0.341-0.064,0.533-0.107c8.533-1.28,16.533-3.285,24.235-5.717
			c1.344-0.427,2.731-0.789,4.075-1.259c7.381-2.56,14.315-5.675,20.864-9.323c1.28-0.704,2.475-1.472,3.712-2.219
			c6.592-3.989,12.864-8.341,18.539-13.44c29.739-26.816,40.384-63.125,43.435-94.251h2.304
			c3.051,31.125,13.696,67.435,43.435,94.251c5.653,5.099,11.925,9.451,18.517,13.419c1.237,0.747,2.475,1.536,3.755,2.261
			c6.528,3.627,13.461,6.72,20.8,9.28c1.365,0.469,2.795,0.875,4.181,1.301c7.637,2.411,15.595,4.395,24.064,5.675
			c0.235,0.043,0.427,0.107,0.661,0.128c8.661,1.28,17.877,1.813,27.392,1.941c1.024,0.021,1.92,0.213,2.944,0.213
			c0.896,0,1.899-0.149,2.795-0.171c8.085-0.085,16.341-0.427,25.003-1.344h0.021c0.107,0,0.171-0.021,0.256-0.043
			c2.56-0.256,5.141-0.683,7.744-1.216c0.064-0.021,0.128-0.021,0.171-0.021C413.333,393.781,340.544,448.928,256,448.928z"/>
	</g>
</g>
<g>
</g>
<g>
</g>
<g>
</g>
<g>
</g>
<g>
</g>
<g>
</g>
<g>
</g>
<g>
</g>
<g>
</g>
<g>
</g>
<g>
</g>
<g>
</g>
<g>
</g>
<g>
</g>
<g>
</g>
</svg>
